<?xml version="1.0" encoding="UTF-8"?> <svg xmlns="http://www.w3.org/2000/svg" width="626" height="626" viewBox="0 0 626 626" fill="none"><g clip-path="url(#clip0_2973_163769)"><rect width="625.13" height="625.13" fill="white"></rect><path fill-rule="evenodd" clip-rule="evenodd" d="M447.743 135.178C435.066 122.5 414.441 122.689 401.81 135.412C392.203 145.089 380.537 156.676 368.784 167.951C362.297 174.174 354.127 180.268 344.677 187.317L344.676 187.318C335.14 194.431 324.298 202.517 312.565 212.691C300.832 202.517 289.991 194.431 280.454 187.317L280.454 187.317C271.003 180.268 262.833 174.174 256.346 167.951C244.593 156.676 232.928 145.089 223.32 135.412C210.689 122.689 190.065 122.5 177.388 135.178L135.178 177.388C122.5 190.065 122.689 210.689 135.412 223.32C145.089 232.927 156.676 244.593 167.951 256.346C174.175 262.833 180.268 271.003 187.318 280.454L187.318 280.454C194.431 289.991 202.517 300.832 212.691 312.565C202.517 324.298 194.431 335.14 187.318 344.676C180.268 354.127 174.175 362.297 167.951 368.784C156.676 380.537 145.089 392.203 135.412 401.81C122.689 414.441 122.5 435.066 135.178 447.743L177.388 489.953C190.065 502.63 210.689 502.441 223.32 489.718C232.927 480.041 244.593 468.455 256.346 457.18C262.833 450.956 271.003 444.862 280.454 437.813L280.454 437.813C289.991 430.699 300.832 422.613 312.565 412.439C324.298 422.613 335.139 430.699 344.676 437.813L344.676 437.813C354.127 444.862 362.297 450.956 368.784 457.18C380.537 468.455 392.203 480.041 401.81 489.718C414.441 502.441 435.066 502.63 447.743 489.953L489.953 447.743C502.63 435.066 502.441 414.441 489.718 401.81C480.041 392.203 468.455 380.537 457.18 368.784C450.956 362.297 444.862 354.127 437.813 344.676C430.7 335.139 422.613 324.298 412.439 312.565C422.613 300.832 430.7 289.991 437.813 280.454L437.813 280.454C444.862 271.003 450.956 262.833 457.18 256.346C468.455 244.593 480.041 232.927 489.718 223.32C502.441 210.689 502.63 190.065 489.953 177.388L447.743 135.178ZM367.336 240.103C354.838 227.606 334.575 227.606 322.077 240.103L240.092 322.089C227.594 334.586 227.594 354.849 240.092 367.347L257.089 384.345C269.587 396.842 289.85 396.842 302.348 384.345L384.333 302.359C396.831 289.861 396.831 269.599 384.333 257.101L367.336 240.103Z" fill="#1F1F1F"></path></g><defs><clipPath id="clip0_2973_163769"><rect width="625.13" height="625.13" fill="white"></rect></clipPath></defs></svg> 